<svg data-v-423bf9ae="" xmlns="http://www.w3.org/2000/svg" viewBox="0 0 586 108" class="iconLeftSlogan"><!----><!----><!----><g data-v-423bf9ae="" id="b1e8c08d-9c8c-46fc-aac0-5d37d64043b4" fill="#1F1E1A" transform="matrix(5.639098067841383,0,0,5.639098067841383,151.7255905832387,-16.97368536884251)"><path d="M1.08 13.51L1.08 3.71L7.35 3.71L7.35 5.45L2.91 5.45L2.91 7.53L6.36 7.53L6.36 9.27L2.91 9.27L2.91 11.77L7.49 11.77L7.49 13.51L1.08 13.51ZM10.68 13.51L7.99 6.51L9.70 6.51L11.42 11.35L13.15 6.51L14.85 6.51L12.17 13.51L10.68 13.51ZM18.96 13.65Q17.74 13.65 16.88 13.15Q16.02 12.66 15.59 11.82Q15.16 10.99 15.16 9.97L15.16 9.97Q15.16 8.99 15.57 8.18Q15.97 7.36 16.74 6.88Q17.51 6.40 18.58 6.40L18.58 6.40Q19.56 6.40 20.24 6.80Q20.92 7.21 21.26 7.90Q21.60 8.58 21.60 9.44L21.60 9.44Q21.60 9.86 21.49 10.39L21.49 10.39L16.97 10.39Q17.11 11.31 17.70 11.77Q18.28 12.22 19.11 12.22L19.11 12.22Q20.24 12.22 21.21 11.65L21.21 11.65L21.29 13.12Q20.85 13.36 20.25 13.50Q19.66 13.65 18.96 13.65L18.96 13.65ZM17.01 9.21L19.84 9.21Q19.84 8.67 19.53 8.25Q19.22 7.83 18.58 7.83L18.58 7.83Q17.93 7.83 17.54 8.20Q17.15 8.58 17.01 9.21L17.01 9.21ZM22.79 13.51L22.79 6.51L24.42 6.51L24.46 7.25Q24.77 6.90 25.25 6.64Q25.73 6.37 26.26 6.37L26.26 6.37Q26.43 6.37 26.57 6.40L26.57 6.40L26.45 8.11Q26.18 8.04 25.84 8.04L25.84 8.04Q25.41 8.04 25.05 8.24Q24.68 8.44 24.53 8.74L24.53 8.74L24.53 13.51L22.79 13.51ZM30.66 13.65Q29.44 13.65 28.58 13.15Q27.72 12.66 27.29 11.82Q26.87 10.99 26.87 9.97L26.87 9.97Q26.87 8.99 27.27 8.18Q27.68 7.36 28.45 6.88Q29.22 6.40 30.28 6.40L30.28 6.40Q31.26 6.40 31.94 6.80Q32.62 7.21 32.96 7.90Q33.31 8.58 33.31 9.44L33.31 9.44Q33.31 9.86 33.19 10.39L33.19 10.39L28.67 10.39Q28.81 11.31 29.40 11.77Q29.99 12.22 30.81 12.22L30.81 12.22Q31.95 12.22 32.91 11.65L32.91 11.65L33.00 13.12Q32.55 13.36 31.95 13.50Q31.36 13.65 30.66 13.65L30.66 13.65ZM28.71 9.21L31.54 9.21Q31.54 8.67 31.23 8.25Q30.93 7.83 30.28 7.83L30.28 7.83Q29.64 7.83 29.25 8.20Q28.85 8.58 28.71 9.21L28.71 9.21ZM36.48 13.65Q35.81 13.65 35.26 13.52Q34.71 13.40 34.12 13.13L34.12 13.13L34.27 11.65Q34.86 12.00 35.37 12.17Q35.88 12.35 36.43 12.35L36.43 12.35Q37.49 12.35 37.49 11.65L37.49 11.65Q37.49 11.27 37.21 11.07Q36.93 10.86 36.20 10.58L36.20 10.58Q35.17 10.21 34.68 9.72Q34.19 9.24 34.19 8.41L34.19 8.41Q34.19 7.50 34.89 6.94Q35.59 6.37 36.78 6.37L36.78 6.37Q37.97 6.37 38.95 6.92L38.95 6.92L38.79 8.40Q38.26 8.04 37.79 7.84Q37.32 7.64 36.81 7.64L36.81 7.64Q36.36 7.64 36.11 7.83Q35.87 8.01 35.87 8.34L35.87 8.34Q35.87 8.61 36.02 8.78Q36.16 8.95 36.43 9.08Q36.69 9.21 37.31 9.45L37.31 9.45Q38.33 9.84 38.78 10.31Q39.23 10.78 39.23 11.56L39.23 11.56Q39.23 12.56 38.51 13.10Q37.80 13.65 36.48 13.65L36.48 13.65ZM42.70 13.65Q41.78 13.65 41.30 13.11Q40.82 12.57 40.82 11.82L40.82 11.82L40.82 7.94L39.83 7.94L39.98 6.51L40.82 6.51L40.82 4.97L42.56 4.79L42.56 6.51L44.10 6.51L44.10 7.94L42.56 7.94L42.56 11.10Q42.56 11.66 42.62 11.88Q42.69 12.10 42.89 12.16Q43.09 12.22 43.62 12.22L43.62 12.22L44.10 12.22L43.95 13.65L42.70 13.65ZM52.02 6.40Q53.02 6.40 53.73 6.89Q54.45 7.38 54.81 8.20Q55.17 9.03 55.17 10.02L55.17 10.02Q55.17 11.02 54.81 11.84Q54.45 12.67 53.73 13.16Q53.02 13.65 52.02 13.65L52.02 13.65Q50.92 13.65 50.02 13.05L50.02 13.05L49.99 13.51L48.37 13.51L48.37 3.01L50.11 3.01L50.11 7.03Q50.96 6.40 52.02 6.40L52.02 6.40ZM51.77 12.22Q52.54 12.22 52.97 11.62Q53.40 11.02 53.40 10.02L53.40 10.02Q53.40 9.03 52.97 8.43Q52.54 7.83 51.77 7.83L51.77 7.83Q50.89 7.83 50.46 8.41Q50.02 9.00 50.02 10.02L50.02 10.02Q50.02 11.05 50.46 11.63Q50.89 12.22 51.77 12.22L51.77 12.22ZM57.89 13.65Q57.02 13.65 56.44 13.08Q55.86 12.52 55.86 11.55L55.86 11.55Q55.86 10.64 56.52 10.09Q57.18 9.53 58.07 9.30Q58.97 9.07 59.79 9.04L59.79 9.04Q59.77 8.43 59.48 8.16Q59.19 7.90 58.53 7.90L58.53 7.90Q58.07 7.90 57.63 8.02Q57.19 8.15 56.62 8.43L56.62 8.43L56.46 7.01Q57.74 6.40 59.01 6.40L59.01 6.40Q60.24 6.40 60.89 7.07Q61.54 7.74 61.54 9.21L61.54 9.21L61.54 11.10Q61.54 11.63 61.59 11.87Q61.64 12.10 61.76 12.16Q61.88 12.22 62.16 12.22L62.16 12.22L62.38 12.22L62.23 13.65L61.60 13.65Q61.03 13.65 60.63 13.43Q60.24 13.22 60.03 12.84L60.03 12.84Q59.70 13.22 59.11 13.43Q58.53 13.65 57.89 13.65L57.89 13.65ZM58.62 12.32Q58.88 12.32 59.22 12.19Q59.56 12.05 59.81 11.82L59.81 11.82L59.81 10.22Q58.97 10.26 58.32 10.58Q57.68 10.91 57.68 11.48L57.68 11.48Q57.68 11.91 57.90 12.12Q58.13 12.32 58.62 12.32L58.62 12.32ZM66.88 6.40Q68.18 6.40 68.85 7.27Q69.52 8.13 69.52 9.60L69.52 9.60L69.52 13.51L67.79 13.51L67.79 9.74Q67.79 8.76 67.46 8.29Q67.13 7.83 66.40 7.83L66.40 7.83Q65.60 7.83 65.09 8.43L65.09 8.43L65.09 13.51L63.35 13.51L63.35 6.51L64.97 6.51L65.00 7Q65.88 6.40 66.88 6.40L66.88 6.40ZM71.06 13.51L71.06 3.01L72.80 3.01L72.80 9.38L74.97 6.51L76.93 6.51L74.38 9.87L76.99 13.51L75.03 13.51L72.80 10.40L72.80 13.51L71.06 13.51Z"></path></g><defs data-v-423bf9ae=""><linearGradient data-v-423bf9ae="" gradientTransform="rotate(25)" id="b459bf2f-373f-4ff9-ad63-addb662a924f" x1="0%" y1="0%" x2="100%" y2="0%"><stop data-v-423bf9ae="" offset="0%" style="stop-color: rgb(9, 120, 166); stop-opacity: 1;"></stop><stop data-v-423bf9ae="" offset="100%" style="stop-color: rgb(251, 148, 71); stop-opacity: 1;"></stop></linearGradient></defs><g data-v-423bf9ae="" id="2117434f-f37e-48ea-85e2-e0e2ba208b1c" transform="matrix(1.0935831705729167,0,0,1.0935831705729167,0.09393334144337473,0.18353208494372808)" stroke="none" fill="url(#b459bf2f-373f-4ff9-ad63-addb662a924f)"><path d="M48.648 70.554a1.001 1.001 0 00-1.539 1.084c2.416 8.718 7.506 17.61 15.128 26.428a1 1 0 001.514-1.307c-6.599-7.633-11.241-15.297-13.834-22.823 9.646 7.145 17.531 15.22 23.465 24.036a.996.996 0 001.388.271 1 1 0 00.271-1.388c-6.56-9.745-15.44-18.593-26.393-26.301z"></path><path d="M106.642 69.302a963.249 963.249 0 0017.876 9.942 1 1 0 00.952-1.76c-.307-.166-23.006-12.443-36.739-21.182.773-.787 1.711-2.034 1.995-3.701.166-.982-.34-2.92-1.406-6.863-1.716-6.336-4.308-15.911-3.251-22.236.137-.818.05-1.702-.251-2.557l-.422-1.197a.533.533 0 01.058-.478.534.534 0 01.415-.243 2.71 2.71 0 002.054-1.161 2.8 2.8 0 00.377-2.408 17.283 17.283 0 01-.642-6.513c1.426 1.761 2.659 3.281 3.793 4.015.899.582 2.31 1.281 3.867 1.984l.015.007c1.642.741 3.447 1.486 5 2.105a5.725 5.725 0 013.555 4.657 125.07 125.07 0 001.48 9.374l.001.008c3.179 16.162 9.384 29.487 18.868 40.508a.997.997 0 001.41.106.999.999 0 00.105-1.41c-8.077-9.387-13.721-20.505-17.097-33.702 3.688 5.092 8.536 9.348 14.484 12.687a1.001 1.001 0 00.978-1.744c-7.455-4.185-13.101-9.861-16.794-16.866a122.545 122.545 0 01-1.451-9.196 7.725 7.725 0 00-4.801-6.28 136.122 136.122 0 01-3.584-1.482c1.746-1.497 4.654-3.489 6.77-3.022 1.848.411 5.116 6.868 7.069 10.727 1.923 3.801 3.059 5.987 4.04 6.739 1.417 1.085 2.719 1.428 3.867 1.731.769.202 1.432.377 2.039.749 1.009.618 2.233 3.443 2.77 5.08a1.003 1.003 0 001.108.679 1 1 0 00.792-1.301c-.27-.824-1.711-4.99-3.625-6.163-.858-.526-1.73-.756-2.574-.978-1.061-.279-2.062-.543-3.16-1.385-.667-.511-2.158-3.456-3.473-6.054-3.308-6.535-5.847-11.205-8.42-11.776-3.58-.796-7.731 2.698-9.205 4.082-1.309-.608-2.311-1.129-2.948-1.542-.873-.565-2.076-2.051-3.35-3.623C86.266 4.051 82.634-.445 78.386.034c-3.6.401-8.203 6.398-12.656 12.199-2.782 3.625-5.66 7.373-7.1 7.958-1.546.628-3.337.428-5.408.197-2.708-.303-5.779-.645-8.985.909-1.706.827-3.709 3.386-6.105 6.829-4.772-5.965-13.222-12.853-17.83-11.877a.837.837 0 00-.07.009c-.025.006-.053.004-.077.01-2.161.546-4.372 3.414-7.171 7.044C9.67 27.613 5.545 32.963.553 35.463a1 1 0 10.895 1.788c5.402-2.705 9.683-8.256 13.121-12.717 2.14-2.775 4.17-5.404 5.641-6.151 4.555 3.635 7.225 8.64 7.902 14.908a1 1 0 001.988-.215c-.63-5.829-2.864-10.655-6.606-14.422 3.997 1.572 9.855 6.551 13.449 11.204l-1.124 1.655c-4.434 6.543-9.919 14.621-15.015 16.832-1.659-1.165-3.373-1.892-5.208-1.892C7.732 46.453.999 64.971.258 67.082c-.003.009-.001.019-.004.028-.023.072-.025.146-.031.221-.005.056-.019.111-.014.165.005.057.029.111.044.167.019.07.032.141.065.205.005.009.004.02.009.029.025.046.066.074.098.115.043.056.081.113.136.159.058.049.125.08.192.114.042.022.074.055.119.071.009.003.018.001.027.004.074.024.151.026.229.032.052.004.104.018.156.014.061-.005.12-.03.18-.047.066-.018.132-.03.193-.061.01-.005.021-.004.031-.01L4.84 66.54a.714.714 0 01.712.004.717.717 0 01.367.611 3.101 3.101 0 003.417 2.993l.153-.016c.566-.053 1.108.117 1.534.491s.668.893.683 1.459l.659 25.358a1 1 0 00.999.974h.027c.552-.014.987-.474.974-1.025l-.659-25.358a4.024 4.024 0 00-1.362-2.909 4.029 4.029 0 00-3.06-.978l-.153.016a1.087 1.087 0 01-.838-.268 1.09 1.09 0 01-.374-.795 2.71 2.71 0 00-1.378-2.291 2.71 2.71 0 00-2.672-.015l-.764.424c2.53-6.28 7.743-16.761 12.49-16.761 3.61 0 7.118 4.041 10.833 8.319 2.688 3.096 5.467 6.298 8.667 8.493.166.114.316.249.472.375l-.723.355a4.84 4.84 0 00-2.722 4.372c0 1.268-.81 2.386-2.015 2.781l-1.331.437a4.904 4.904 0 00-3.391 4.768l.332 19.078a1 1 0 001 .982h.018a1 1 0 00.982-1.018l-.332-19.078a2.913 2.913 0 012.014-2.833l1.331-.437a4.92 4.92 0 003.392-4.682c0-1.103.614-2.09 1.604-2.577l1.271-.625c.3.423.573.866.784 1.346 4.765 10.787 11.534 20.745 20.121 29.598a.998.998 0 001.414.022 1 1 0 00.021-1.414c-8.422-8.682-15.059-18.444-19.727-29.013a9.721 9.721 0 00-1.618-2.501c-.022-.022-.04-.047-.064-.067a9.6 9.6 0 00-1.705-1.52c-2.989-2.05-5.683-5.154-8.288-8.155-1.788-2.06-3.533-4.067-5.316-5.663 3.201-1.187 7.573-2.375 9.218-1.644 2.432 1.077 2.635 5.284 2.637 5.327a1.002 1.002 0 001.494.829c.024-.015 2.496-1.366 4.427-.291.6.333 1.543 1.724 2.542 3.197 2.5 3.683 5.922 8.727 11.463 9.836a1 1 0 00.671-1.86c-1.905-1.029-3.492-4.509-4.852-8.517-.025-.93-.166-5.531-.568-10.36a3.045 3.045 0 003.04.446.87.87 0 01.674.002.871.871 0 01.472.478c2.383 5.86 6.831 11.304 13.209 16.188 2.275 6.883 5.575 14.606 10.887 22.191.04.062.073.126.124.177a72.708 72.708 0 005.345 6.737.999.999 0 101.488-1.336 70.667 70.667 0 01-4.707-5.856c.793-.787 1.075-1.932 1.31-2.905.313-1.298.546-2.109 1.322-2.423.925-.373 3.045 1.389 4.447 2.555 1.602 1.333 2.866 2.387 4.051 2.413 1.313.054 2.196-.756 2.984-1.449.843-.743 1.401-1.189 2.231-1.056 1.597.26 6.859 6.213 11.023 11.819a1 1 0 101.606-1.192c-1.495-2.013-9.116-12.082-12.309-12.6-1.802-.295-2.998.759-3.872 1.527-.68.597-1.134.931-1.619.952-.486-.011-1.889-1.178-2.816-1.951-2.08-1.733-4.436-3.696-6.477-2.873-1.769.715-2.184 2.43-2.517 3.808-.177.736-.336 1.279-.571 1.662-7.957-11.723-11.098-23.764-13.302-32.246-.738-2.84-1.376-5.292-2.068-7.294C60.323 34.6 49.2 24.71 48.727 24.293a1 1 0 00-1.323 1.499c.112.099 11.202 9.962 14.312 18.95.667 1.927 1.295 4.344 2.022 7.143.634 2.438 1.35 5.174 2.225 8.103-4.91-4.185-8.292-8.623-10.275-13.501a2.86 2.86 0 00-1.549-1.568 2.863 2.863 0 00-2.207-.01 1.04 1.04 0 01-1.083-.188l-1.477-1.327c-.32-2.976-.752-5.768-1.333-7.537-1.429-4.348-5.017-7.555-6.651-8.841 1.469-1.974 2.761-3.453 3.718-3.917 2.685-1.302 5.332-1.007 7.891-.721 2.248.25 4.368.487 6.383-.332.975-.396 2.104-1.436 3.49-3.025 1.915-1.69 7.446-5.666 10.428-4.134 1.528.785 3.023 8.072 4.343 14.501 1.593 7.764 3.52 17.122 6.708 24.034-2.562-1.759-4.469-3.239-5.344-4.253-2.209-2.561-3.995-6.138-5.887-9.925-2.593-5.19-5.273-10.557-9.465-14.278a1 1 0 10-1.328 1.495c3.902 3.465 6.495 8.657 9.003 13.677 1.949 3.901 3.79 7.587 6.163 10.337 1.314 1.524 4.691 3.964 9.058 6.791.017.01.032.025.049.034l.013.007c4.62 2.988 10.341 6.406 15.934 9.644-1.113.145-1.983.575-2.297 1.476-.233.67-.223 1.744 1.148 3.054.178.17.208.374.202.515a.837.837 0 01-.316.611c-.596.476-.957 1.054-1.073 1.717-.664 3.754 15.355 18.924 24.288 23.96a1 1 0 10.982-1.742c-9.799-5.525-23.282-19.608-23.302-21.871.012-.063.046-.256.354-.502a2.834 2.834 0 001.065-2.084 2.674 2.674 0 00-.817-2.049c-.606-.579-.661-.898-.669-.905.296-.289 2.03-.381 4.532.171zM46.144 36.48c.852 2.592 1.373 7.738 1.682 12.214-1.174-4.129-2.213-7.652-3.432-9.277-2.393-3.19-6.112-3.859-6.27-3.886a.999.999 0 10-.338 1.971c.031.005 3.087.554 5.008 3.114 1.064 1.419 2.152 5.254 3.304 9.315 1.347 4.744 2.813 9.916 4.789 13.401-2.673-1.909-4.688-4.879-6.292-7.242-1.283-1.891-2.21-3.257-3.225-3.821-1.824-1.016-3.799-.681-5.062-.266-.311-1.733-1.189-4.586-3.658-5.68-1.397-.618-3.626-.391-5.814.106 3.745-3.638 7.338-8.927 10.637-13.795.94-1.387 1.864-2.75 2.743-3.996 1.487 1.19 4.695 4.09 5.928 7.842zm28.072-23.373c-2.171-1.114-4.852-.412-7.199.735l.301-.39C71.121 8.497 75.856 2.33 78.609 2.023c2.485-.27 5.059 2.196 7.323 4.839-.574 3.142-.429 6.225.451 9.171a.809.809 0 01-.104.695.71.71 0 01-.545.307 2.52 2.52 0 00-1.952 1.138c-.44.67-.54 1.487-.273 2.243l.422 1.196c.189.537.246 1.077.165 1.563-1.128 6.755 1.532 16.584 3.293 23.087.686 2.532 1.462 5.402 1.365 6.006-.195 1.143-.866 2.035-1.423 2.609-3.791-6.733-5.965-17.305-7.727-25.89-1.977-9.632-3.113-14.712-5.388-15.88z"></path></g><!----><g data-v-423bf9ae="" id="23550464-fcc6-41ec-bd97-f9be15a2e8f8" fill="#1F1E1A" transform="matrix(1.025886378691318,0,0,1.025886378691318,156.99510489774633,54.17296738476665)"><path d="M0.80 15.68L0.80 14.59L1.64 14.59L1.64 6.97L0.80 6.97L0.80 5.88L4.76 5.88Q5.46 5.88 6.00 6.08Q6.54 6.27 6.91 6.61Q7.28 6.94 7.47 7.41Q7.66 7.88 7.66 8.43L7.66 8.43L7.66 8.60Q7.66 9.00 7.53 9.34Q7.41 9.67 7.18 9.94Q6.96 10.21 6.66 10.39Q6.36 10.58 6.01 10.68L6.01 10.68L6.01 10.85Q6.71 11.05 7.18 11.60Q7.66 12.15 7.66 12.95L7.66 12.95L7.66 13.12Q7.66 13.66 7.47 14.13Q7.28 14.60 6.91 14.95Q6.54 15.29 6.00 15.48Q5.46 15.68 4.76 15.68L4.76 15.68L0.80 15.68ZM2.81 11.31L2.81 14.59L4.68 14.59Q5.50 14.59 6.02 14.17Q6.54 13.76 6.54 13.03L6.54 13.03L6.54 12.95Q6.54 12.19 6.05 11.75Q5.56 11.31 4.72 11.31L4.72 11.31L2.81 11.31ZM2.81 6.97L2.81 10.22L4.72 10.22Q5.56 10.22 6.05 9.79Q6.54 9.35 6.54 8.60L6.54 8.60L6.54 8.51Q6.54 7.80 6.02 7.38Q5.50 6.97 4.68 6.97L4.68 6.97L2.81 6.97ZM22.67 15.68L21.95 13.24L17.75 13.24L17.04 15.68L15.78 15.68L18.75 5.88L20.96 5.88L23.93 15.68L22.67 15.68ZM19.94 6.38L19.77 6.38L18.07 12.15L21.63 12.15L19.94 6.38ZM34.51 5.88L37.34 15.18L37.51 15.18L37.51 5.88L38.68 5.88L38.68 15.68L36.33 15.68L33.50 6.38L33.33 6.38L33.33 15.68L32.16 15.68L32.16 5.88L34.51 5.88ZM49.13 11.31L49.13 15.68L47.95 15.68L47.95 5.88L49.13 5.88L49.13 10.22L49.45 10.22L53.21 5.88L54.67 5.88L54.67 5.96L50.61 10.70L50.61 10.86L54.84 15.60L54.84 15.68L53.35 15.68L49.45 11.31L49.13 11.31ZM63.45 6.97L63.45 5.88L69.66 5.88L69.66 6.97L67.14 6.97L67.14 14.59L69.66 14.59L69.66 15.68L63.45 15.68L63.45 14.59L65.97 14.59L65.97 6.97L63.45 6.97ZM81.21 5.88L84.04 15.18L84.21 15.18L84.21 5.88L85.39 5.88L85.39 15.68L83.03 15.68L80.21 6.38L80.04 6.38L80.04 15.68L78.86 15.68L78.86 5.88L81.21 5.88ZM96.75 12.07L96.75 10.98L101.12 10.98L101.12 15.68L100.03 15.68L100.03 14.50L99.86 14.50Q99.62 15.12 99.02 15.50Q98.42 15.88 97.62 15.88L97.62 15.88Q96.04 15.88 95.14 14.85Q94.23 13.83 94.23 11.87L94.23 11.87L94.23 9.69Q94.23 7.78 95.14 6.73Q96.05 5.68 97.68 5.68L97.68 5.68Q98.52 5.68 99.16 5.96Q99.81 6.23 100.24 6.71Q100.67 7.20 100.90 7.85Q101.12 8.50 101.12 9.24L101.12 9.24L101.12 9.41L99.95 9.41L99.95 9.24Q99.95 8.76 99.81 8.32Q99.68 7.87 99.41 7.53Q99.13 7.18 98.71 6.98Q98.28 6.78 97.68 6.78L97.68 6.78Q96.54 6.78 95.98 7.60Q95.41 8.43 95.41 9.77L95.41 9.77L95.41 11.79Q95.41 13.23 95.98 14.01Q96.54 14.78 97.71 14.78L97.71 14.78Q98.76 14.78 99.35 14.11Q99.95 13.44 99.95 12.24L99.95 12.24L99.95 12.07L96.75 12.07ZM128.24 15.68L128.24 12.24L127.99 12.24L124.92 5.88L126.24 5.88L128.74 11.23L128.91 11.23L131.42 5.88L132.73 5.88L129.67 12.24L129.42 12.24L129.42 15.68L128.24 15.68ZM140.95 11.87L140.95 9.69Q140.95 7.78 141.86 6.73Q142.77 5.68 144.40 5.68L144.40 5.68Q146.02 5.68 146.93 6.73Q147.84 7.78 147.84 9.69L147.84 9.69L147.84 11.87Q147.84 13.83 146.93 14.85Q146.02 15.88 144.40 15.88L144.40 15.88Q142.77 15.88 141.86 14.85Q140.95 13.83 140.95 11.87L140.95 11.87ZM144.40 14.78L144.40 14.78Q145.53 14.78 146.10 14.01Q146.66 13.23 146.66 11.79L146.66 11.79L146.66 9.77Q146.66 8.43 146.10 7.60Q145.53 6.78 144.40 6.78L144.40 6.78Q143.26 6.78 142.69 7.60Q142.13 8.43 142.13 9.77L142.13 9.77L142.13 11.79Q142.13 13.23 142.69 14.01Q143.26 14.78 144.40 14.78ZM156.60 5.88L157.78 5.88L157.78 12.38Q157.78 13.57 158.33 14.17Q158.89 14.78 159.96 14.78L159.96 14.78Q161.04 14.78 161.59 14.17Q162.15 13.57 162.15 12.38L162.15 12.38L162.15 5.88L163.32 5.88L163.32 12.38Q163.32 14.08 162.43 14.98Q161.53 15.88 159.96 15.88L159.96 15.88Q158.40 15.88 157.50 14.98Q156.60 14.08 156.60 12.38L156.60 12.38L156.60 5.88ZM187.66 6.97L187.66 5.88L194.54 5.88L194.54 6.97L191.69 6.97L191.69 15.68L190.51 15.68L190.51 6.97L187.66 6.97ZM203.22 11.87L203.22 9.69Q203.22 7.78 204.13 6.73Q205.04 5.68 206.67 5.68L206.67 5.68Q208.29 5.68 209.20 6.73Q210.11 7.78 210.11 9.69L210.11 9.69L210.11 11.87Q210.11 13.83 209.20 14.85Q208.29 15.88 206.67 15.88L206.67 15.88Q205.04 15.88 204.13 14.85Q203.22 13.83 203.22 11.87L203.22 11.87ZM206.67 14.78L206.67 14.78Q207.80 14.78 208.37 14.01Q208.94 13.23 208.94 11.79L208.94 11.79L208.94 9.77Q208.94 8.43 208.37 7.60Q207.80 6.78 206.67 6.78L206.67 6.78Q205.53 6.78 204.97 7.60Q204.40 8.43 204.40 9.77L204.40 9.77L204.40 11.79Q204.40 13.23 204.97 14.01Q205.53 14.78 206.67 14.78ZM234.36 6.97L234.36 5.88L241.25 5.88L241.25 6.97L238.39 6.97L238.39 15.68L237.22 15.68L237.22 6.97L234.36 6.97ZM250.11 15.68L250.11 5.88L251.29 5.88L251.29 10.22L255.46 10.22L255.46 5.88L256.63 5.88L256.63 15.68L255.46 15.68L255.46 11.31L251.29 11.31L251.29 15.68L250.11 15.68ZM265.97 15.68L265.97 5.88L271.91 5.88L271.91 6.97L267.15 6.97L267.15 10.22L271.82 10.22L271.82 11.31L267.15 11.31L267.15 14.59L271.99 14.59L271.99 15.68L265.97 15.68ZM296.63 6.97L296.63 5.88L303.52 5.88L303.52 6.97L300.66 6.97L300.66 15.68L299.49 15.68L299.49 6.97L296.63 6.97ZM312.20 11.87L312.20 9.69Q312.20 7.78 313.11 6.73Q314.02 5.68 315.64 5.68L315.64 5.68Q317.27 5.68 318.18 6.73Q319.09 7.78 319.09 9.69L319.09 9.69L319.09 11.87Q319.09 13.83 318.18 14.85Q317.27 15.88 315.64 15.88L315.64 15.88Q314.02 15.88 313.11 14.85Q312.20 13.83 312.20 11.87L312.20 11.87ZM315.64 14.78L315.64 14.78Q316.78 14.78 317.35 14.01Q317.91 13.23 317.91 11.79L317.91 11.79L317.91 9.77Q317.91 8.43 317.35 7.60Q316.78 6.78 315.64 6.78L315.64 6.78Q314.51 6.78 313.94 7.60Q313.38 8.43 313.38 9.77L313.38 9.77L313.38 11.79Q313.38 13.23 313.94 14.01Q314.51 14.78 315.64 14.78ZM331.62 11.65L329.29 11.65L329.29 15.68L328.12 15.68L328.12 5.88L331.62 5.88Q332.37 5.88 332.93 6.10Q333.49 6.31 333.87 6.68Q334.24 7.04 334.43 7.53Q334.61 8.01 334.61 8.54L334.61 8.54L334.61 8.96Q334.61 9.49 334.43 9.98Q334.24 10.47 333.86 10.84Q333.48 11.21 332.92 11.43Q332.36 11.65 331.62 11.65L331.62 11.65ZM329.29 6.97L329.29 10.56L331.48 10.56Q333.44 10.56 333.44 8.88L333.44 8.88L333.44 8.62Q333.44 7.88 332.95 7.43Q332.47 6.97 331.48 6.97L331.48 6.97L329.29 6.97Z"></path></g></svg>